<svg width="35" height="35" fill="none" xmlns="http://www.w3.org/2000/svg"><circle cx="18.261" cy="16.739" r="15.217" fill="#fff"/><path d="M22.716 9.312H12.284a3.023 3.023 0 0 0-3.02 3.02v10.431a3.023 3.023 0 0 0 3.02 3.02h10.432a3.024 3.024 0 0 0 3.02-3.02V12.331a3.023 3.023 0 0 0-3.02-3.02zM17.5 22.97a5.428 5.428 0 0 1-5.422-5.423 5.428 5.428 0 0 1 5.422-5.422 5.428 5.428 0 0 1 5.422 5.422A5.429 5.429 0 0 1 17.5 22.97zm5.597-9.724a1.284 1.284 0 0 1-1.284-1.283 1.284 1.284 0 0 1 2.566 0c0 .708-.575 1.283-1.282 1.283z" fill="url(#paint0_linear)"/><path d="M17.5 14.416a3.135 3.135 0 0 0-3.131 3.13A3.135 3.135 0 0 0 17.5 20.68a3.135 3.135 0 0 0 3.13-3.132 3.135 3.135 0 0 0-3.13-3.13z" fill="url(#paint1_linear)"/><path d="M17.5 0C7.835 0 0 7.835 0 17.5S7.835 35 17.5 35 35 27.165 35 17.5 27.165 0 17.5 0zm10.527 22.763a5.316 5.316 0 0 1-5.311 5.31H12.284a5.317 5.317 0 0 1-5.31-5.31V12.331a5.317 5.317 0 0 1 5.31-5.31h10.432a5.317 5.317 0 0 1 5.31 5.31v10.432z" fill="url(#paint2_linear)"/><defs><linearGradient id="paint0_linear" x1="17.5" y1="25.735" x2="17.5" y2="9.44" gradientUnits="userSpaceOnUse"><stop stop-color="#E09B3D"/><stop offset=".3" stop-color="#C74C4D"/><stop offset=".6" stop-color="#C21975"/><stop offset="1" stop-color="#7024C4"/></linearGradient><linearGradient id="paint1_linear" x1="17.5" y1="20.66" x2="17.5" y2="14.465" gradientUnits="userSpaceOnUse"><stop stop-color="#E09B3D"/><stop offset=".3" stop-color="#C74C4D"/><stop offset=".6" stop-color="#C21975"/><stop offset="1" stop-color="#7024C4"/></linearGradient><linearGradient id="paint2_linear" x1="17.5" y1="34.898" x2="17.5" y2=".272" gradientUnits="userSpaceOnUse"><stop stop-color="#E09B3D"/><stop offset=".3" stop-color="#C74C4D"/><stop offset=".6" stop-color="#C21975"/><stop offset="1" stop-color="#7024C4"/></linearGradient></defs></svg>