<svg width="15" height="16" fill="none" xmlns="http://www.w3.org/2000/svg"><path d="M13.844 9.886a.374.374 0 0 0-.373.374v3.317a1.12 1.12 0 0 1-1.12 1.12H1.867a1.12 1.12 0 0 1-1.12-1.12V3.842c0-.62.501-1.12 1.12-1.121h3.317a.374.374 0 1 0 0-.747H1.868A1.87 1.87 0 0 0 0 3.842v9.735a1.87 1.87 0 0 0 1.868 1.868H12.35a1.87 1.87 0 0 0 1.868-1.868V10.26a.374.374 0 0 0-.374-.374z" fill="#000"/><path d="M14.07 1.012a1.681 1.681 0 0 0-2.377 0L5.028 7.677a.374.374 0 0 0-.096.165l-.877 3.164a.373.373 0 0 0 .46.46l3.164-.877a.374.374 0 0 0 .165-.096l6.664-6.665a1.683 1.683 0 0 0 0-2.377l-.438-.439zM5.842 7.92l5.454-5.455 1.76 1.76L7.6 9.678 5.84 7.92zm-.352.705l1.406 1.406-1.944.538.538-1.944zM13.98 3.3l-.396.396-1.76-1.76.397-.395a.934.934 0 0 1 1.32 0l.44.438a.935.935 0 0 1 0 1.321z" fill="#000"/></svg>