<svg width="20" height="20" fill="none" xmlns="http://www.w3.org/2000/svg"><path d="M19.667 15.667a.333.333 0 1 0 0-.667h-.333a.333.333 0 1 0-.667 0h-5.333a.333.333 0 0 0-.667 0h-.333a.333.333 0 1 0 0 .667h.333v1h-.333a.333.333 0 1 0 0 .666h.333v.334h-.333a.333.333 0 1 0 0 .666h.333v1H7v-2.757c.493.277 1.05.424 1.616.424A3.434 3.434 0 0 0 12 13.526a3.471 3.471 0 0 0-1.898-3.122 3.043 3.043 0 0 0 .59-1.814 3.01 3.01 0 0 0-2.41-2.973A2.578 2.578 0 0 0 6 1.974l-.03.002a2.332 2.332 0 0 0-4.617.054 1.667 1.667 0 0 0 .314 3.303H3.61c.03.096.066.19.107.282a3.011 3.011 0 0 0-2.41 2.975 3.043 3.043 0 0 0 .591 1.814A3.471 3.471 0 0 0 0 13.526 3.434 3.434 0 0 0 3.385 17c.566 0 1.122-.147 1.615-.424v2.757H.334a.333.333 0 1 0 0 .667h19.333a.333.333 0 1 0 0-.667h-.333v-1h.333a.333.333 0 0 0 0-.666h-.333v-.334h.333a.333.333 0 1 0 0-.666h-.333v-1h.333zM3.487 4.55c0 .04.005.077.006.116H1.667a1 1 0 1 1 0-2A.333.333 0 0 0 2 2.333a1.663 1.663 0 0 1 3.308-.257 2.571 2.571 0 0 0-1.82 2.475zm2.847 14.782h-.667v-3.247c.12-.112.23-.231.333-.358.103.127.214.246.334.357v3.248zm.04-4.235l2.195-2.196a.333.333 0 0 0-.471-.47l-1.764 1.763v-3.39l1.569-1.57a.333.333 0 0 0-.472-.47L6.334 9.861V8.333a.333.333 0 0 0-.667 0v1.529L4.569 8.764a.333.333 0 0 0-.471.472l1.569 1.569v3.39l-1.764-1.764a.333.333 0 0 0-.472.471l2.195 2.196a2.669 2.669 0 0 1-2.241 1.235 2.767 2.767 0 0 1-2.718-2.807 2.79 2.79 0 0 1 1.89-2.674.333.333 0 0 0 .129-.554 2.375 2.375 0 0 1-.712-1.708A2.321 2.321 0 0 1 4.23 6.23c.138.012.27-.06.334-.181a.333.333 0 0 0-.028-.348 1.932 1.932 0 0 1-.382-1.15A1.881 1.881 0 0 1 6 2.641a1.881 1.881 0 0 1 1.846 1.91c0 .415-.134.818-.381 1.15a.331.331 0 0 0-.024.347.34.34 0 0 0 .303.183 2.324 2.324 0 0 1 2.282 2.359 2.375 2.375 0 0 1-.711 1.708.333.333 0 0 0 .129.554 2.82 2.82 0 0 1-.828 5.481 2.669 2.669 0 0 1-2.242-1.235zm12.293 4.235h-5.333v-1h5.333v1zm0-1.666h-5.333v-.334h5.333v.334zm0-1h-5.333v-1h5.333v1zm-4.333-8.333h4a1.667 1.667 0 0 0 .313-3.303 2.334 2.334 0 0 0-4.627 0 1.667 1.667 0 0 0 .314 3.303zm0-2.666a.333.333 0 0 0 .333-.334 1.667 1.667 0 0 1 3.333 0 .333.333 0 0 0 .334.334 1 1 0 1 1 0 2h-4a1 1 0 0 1 0-2z" fill="#555"/></svg>