<svg width="20" height="20" fill="none" xmlns="http://www.w3.org/2000/svg"><path d="M19.667 5h-5V.333A.333.333 0 0 0 14.334 0H5.666a.333.333 0 0 0-.334.333V5h-5A.333.333 0 0 0 0 5.333v12c0 .184.149.334.333.334h.697A2 2 0 0 0 1 18v1.667c0 .184.149.333.333.333h17.334a.333.333 0 0 0 .333-.333V18c0-.112-.01-.223-.03-.333h.697a.333.333 0 0 0 .333-.333v-12A.333.333 0 0 0 19.667 5zm-5.334 9.333a.667.667 0 1 1-1.333 0 .667.667 0 0 1 1.333 0zm-8-.666a.667.667 0 1 1 0 1.333.667.667 0 0 1 0-1.333zm-2 5.666H1.667V18a1.333 1.333 0 1 1 2.666 0v1.333zm-2-4a.667.667 0 1 1 1.334 0 .667.667 0 0 1-1.334 0zm2.05 1.226a2.008 2.008 0 0 0-.418-.31 1.333 1.333 0 1 0-1.93 0 2.012 2.012 0 0 0-.764.751H.667V5.667h4.666v7.794a1.315 1.315 0 0 0 .036 1.788c-.5.276-.858.753-.985 1.31zm3.284 2.774H5V17a1.333 1.333 0 1 1 2.667 0v2.333zm4 0H8.333V17a1.667 1.667 0 1 1 3.334 0v2.333zM9 13.667a1 1 0 1 1 2 0 1 1 0 0 1-2 0zm3.03 2.187a2.348 2.348 0 0 0-.956-.923 1.667 1.667 0 1 0-2.148 0c-.4.209-.733.53-.956.923a2.014 2.014 0 0 0-.672-.605A1.324 1.324 0 0 0 6 13.047V.667h8v12.38a1.322 1.322 0 0 0-.333-.047 1.33 1.33 0 0 0-.965 2.249 2.013 2.013 0 0 0-.672.605zM15 18v1.333h-2.667V17A1.333 1.333 0 0 1 15 17v1zm3.333 1.333h-2.666V18a1.333 1.333 0 1 1 2.666 0v1.333zm-2-4a.667.667 0 1 1 1.334 0 .667.667 0 0 1-1.334 0zm3 1.667h-.604a2.012 2.012 0 0 0-.764-.751 1.333 1.333 0 1 0-1.93 0c-.152.085-.293.19-.419.31a2.006 2.006 0 0 0-.985-1.31 1.315 1.315 0 0 0 .036-1.788V5.667h4.666V17z" fill="#555"/></svg>