<svg width="21" height="20" fill="none" xmlns="http://www.w3.org/2000/svg"><path d="M19.946 19.484l-7-10.667a.333.333 0 0 0-.278-.15H7.334a.333.333 0 0 0-.278.15l-7 10.667A.333.333 0 0 0 .334 20h19.333a.333.333 0 0 0 .28-.516zM7.514 9.334h.323l-5.236 10H.951l6.563-10zm2.82 10V18h-.666v1.333H3.355l5.233-10h1.08v.334h.666v-.334h1.079l5.233 10h-6.312zm7.067 0l-5.233-10h.322l6.56 10H17.4z" fill="#555"/><path d="M9.668 10h.666v.667h-.666V10zm0 1.333h.666v1h-.666v-1zm0 1.667h.666v1.333h-.666V13zm0 2.333h.666V17h-.666v-1.667zM10 8a.333.333 0 0 0 .257-.12C10.537 7.544 13 4.55 13 3a3 3 0 0 0-6 0c0 1.549 2.463 4.544 2.744 4.88.063.076.157.12.256.12zm0-7.333A2.336 2.336 0 0 1 12.335 3c0 .994-1.504 3.093-2.333 4.138C9.17 6.094 7.668 3.995 7.668 3A2.337 2.337 0 0 1 10 .667z" fill="#555"/><path d="M11.334 2.667a1.333 1.333 0 1 0-2.667 0 1.333 1.333 0 0 0 2.667 0zm-2 0a.667.667 0 1 1 1.334 0 .667.667 0 0 1-1.334 0z" fill="#555"/></svg>