<svg width="20" height="20" fill="none" xmlns="http://www.w3.org/2000/svg"><path d="M8.964 11.36h1.383a.324.324 0 0 0 0-.647H8.964a.324.324 0 0 0 0 .648z" fill="#555"/><path d="M17.985 14.666a.329.329 0 0 0-.029-.012l-2.454-.945a.914.914 0 0 1-.54-.566l-.099-.295c.55-.789.761-1.563.246-2.337a2.114 2.114 0 0 0-.875-.768 6.985 6.985 0 0 0 .238-1.816v-.022h.022c.369 0 .67-.3.67-.67v-.69a.67.67 0 0 0-.346-.586v-.797A5.168 5.168 0 0 0 9.656 0a5.168 5.168 0 0 0-5.162 5.162v.797a.67.67 0 0 0-.346.585v.691c0 .37.3.67.67.67h.021v.022c0 .633.084 1.244.238 1.816a2.114 2.114 0 0 0-.874.768c-.516.774-.304 1.548.245 2.337l-.098.295a.914.914 0 0 1-.54.566l-2.455.945A2.384 2.384 0 0 0 .001 16.81v2.174c0 .56.456 1.015 1.015 1.015h17.279c.56 0 1.015-.455 1.015-1.015V16.81c0-.914-.508-1.736-1.325-2.145zm-3.415-3.795c.189.284.343.707-.145 1.473-.253.398-.634.82-1.069 1.263a.366.366 0 0 1-.266-.353v-1.18a.326.326 0 0 0-.003-.044c.389-.48.71-1.042.946-1.662.212.114.386.277.537.503zM5.632 9.287h.08a.85.85 0 0 1 .605.251c.284.284.66.44 1.062.44h4.553c.401 0 .779-.156 1.063-.44a.849.849 0 0 1 .605-.25h.08c-.481 2.212-2.103 3.844-4.024 3.844-1.922 0-3.544-1.632-4.024-3.845zm.951 4.674a1.01 1.01 0 0 0 .286-.707v-.556c.787.681 1.75 1.082 2.787 1.082s1.999-.4 2.786-1.082v.556c0 .273.107.523.286.707-.942.588-2 .899-3.072.899a5.79 5.79 0 0 1-3.073-.899zm3.073 1.547c.74 0 1.471-.133 2.17-.388-.885.899-1.727 1.874-2.17 2.967-.444-1.093-1.286-2.068-2.17-2.967.698.255 1.43.388 2.17.388zm4.86-8.273c0 .012-.01.022-.022.022h-.713v-.734h.713c.012 0 .021.01.021.021v.691zm-2.463.022v-.734h1.08v.734h-1.08zm-2.073 0v-.734h1.425v.734H9.98zm-2.074 0v-.734h1.426v.734H7.906zm-1.728 0v-.734h1.08v.734h-1.08zm6.264-1.382h-1.426v-.713c0-1.314-.11-2.553-.31-3.489a6.005 6.005 0 0 0-.23-.822c.408.207.787.568 1.106 1.065.555.862.86 2.015.86 3.246v.713zm-3.5 0v-.713c0-1.173.093-2.296.26-3.165.167-.872.36-1.226.454-1.327.093.1.287.455.454 1.327.167.869.258 1.992.258 3.165v.713H8.943zM8.836.85c-.084.227-.16.5-.23.822-.2.936-.31 2.175-.31 3.489v.713H6.869v-.713c0-1.23.306-2.384.86-3.246.32-.497.698-.858 1.106-1.065zm5.335 4.311v.713h-1.08v-.713c0-1.354-.342-2.63-.963-3.596a4.638 4.638 0 0 0-.222-.317 4.517 4.517 0 0 1 2.265 3.913zM7.407 1.249a4.64 4.64 0 0 0-.223.317c-.62.965-.962 2.242-.962 3.596v.713h-1.08v-.713c0-1.67.912-3.132 2.265-3.913zM4.796 7.235v-.69c0-.013.01-.022.022-.022h.712v.734h-.712a.022.022 0 0 1-.022-.022zm2.809.67l-.001.022v.345a.324.324 0 0 0 .648 0v-.345l-.001-.022h2.81l-.002.022v.345a.324.324 0 0 0 .649 0v-.345l-.002-.022h2.118v.022c0 .241-.013.48-.04.712H13.6c-.402 0-.78.157-1.064.441a.849.849 0 0 1-.604.25H7.38a.85.85 0 0 1-.605-.25 1.493 1.493 0 0 0-1.062-.44h-.186a6.515 6.515 0 0 1-.039-.713v-.022h2.118zm-2.863 2.966c.15-.226.324-.389.537-.503.235.62.556 1.181.946 1.662a.326.326 0 0 0-.003.043v1.18a.365.365 0 0 1-.267.354c-.435-.443-.815-.865-1.069-1.263-.488-.766-.333-1.19-.144-1.473zM.649 18.985V16.81c0-.662.365-1.258.954-1.558l2.439-.939a1.56 1.56 0 0 0 .884-.862c.382.438.836.88 1.298 1.331 1.371 1.338 2.915 2.844 3.09 4.57h-5.21v-1.06a.324.324 0 0 0-.647 0v1.06h-2.44a.368.368 0 0 1-.368-.368zm18.013 0a.368.368 0 0 1-.367.367h-2.44v-1.058a.324.324 0 0 0-.649 0v1.058h-5.21c.177-1.725 1.72-3.231 3.092-4.569.462-.45.916-.894 1.298-1.331.163.396.48.707.883.862l2.44.939c.588.3.953.896.953 1.558v2.174z" fill="#555"/></svg>