<svg width="20" height="20" fill="none" xmlns="http://www.w3.org/2000/svg"><path d="M.641 5.525a.81.81 0 0 0-.012.12v.822c0 .34.211.642.53.761v1.21c0 .406.32.74.724.759v6.993a.761.761 0 0 0-.725.758v1.207a.825.825 0 0 0-.53.768v.805c0 .15.123.272.273.272h18.334c.15 0 .271-.122.271-.272v-.805a.825.825 0 0 0-.529-.768v-1.214a.761.761 0 0 0-.725-.758V9.197a.761.761 0 0 0 .725-.758v-1.21a.816.816 0 0 0 .53-.762V5.65a.79.79 0 0 0-.013-.12.27.27 0 0 0 .22-.495L10.192.031a.272.272 0 0 0-.254 0L.419 5.03a.272.272 0 0 0 .222.495zm1.06 2.174v-.418h3.136v.415l-3.135.003zm6.982 1.5v6.991a.761.761 0 0 0-.725.758v1.156h-2.58v-1.156a.761.761 0 0 0-.726-.758V9.197a.761.761 0 0 0 .725-.758V7.28h2.577v1.156c.001.406.32.74.725.76l.004.001zm-.181-1.5v-.418h3.135v.415l-3.135.003zm6.981 1.5v6.991a.761.761 0 0 0-.725.758v1.156h-2.58v-1.156a.761.761 0 0 0-.726-.758V9.197a.761.761 0 0 0 .725-.758V7.28h2.577v1.156c0 .406.32.74.725.76l.004.001zm-.181-1.5v-.418h3.135v.415l-3.135.003zm3.135 9.99v.415h-3.139v-.415h3.14zm-6.8 0v.415H8.498v-.415h3.14zM8.951 8.66h-.235a.217.217 0 0 1-.218-.218v-.198h3.136v.198c0 .12-.098.217-.218.217H8.951zm1.96.543v6.985H9.222V9.202h1.687zM8.95 16.73h2.465c.12 0 .217.098.217.218v.198H8.498v-.198c0-.12.097-.218.218-.218h.235zm-4.117.96v.414H1.698v-.415h3.136zM1.698 8.445v-.203h3.136v.198c0 .12-.098.217-.218.217H1.91a.217.217 0 0 1-.212-.22v.008zm2.41.761v6.98H2.424V9.202l1.686.005zm-2.41 7.746c0-.12.097-.217.218-.217h2.7c.12 0 .218.097.218.217v.198H1.698v-.198zm17.265 1.981v.533H1.169v-.533a.28.28 0 0 1 .28-.28h17.233a.28.28 0 0 1 .28.275v.005zm-.53-1.98v.197h-3.135v-.198c0-.12.097-.217.217-.217h2.706c.116.003.21.096.212.212v.005zm-2.41-.762v-6.99h1.687v6.985l-1.687.005zm2.41-7.746c0 .12-.097.218-.217.218h-2.699a.217.217 0 0 1-.217-.218v-.203h3.135l-.002.203zM10.066.576l8.096 4.255H1.97L10.066.575zM1.169 5.65c0-.15.122-.272.272-.272h17.25c.15 0 .272.122.272.272v.823c0 .15-.122.271-.272.271H1.44a.272.272 0 0 1-.272-.271V5.65z" fill="#555"/></svg>