<svg width="24" height="24" fill="none" xmlns="http://www.w3.org/2000/svg"><path d="M11.459 1.688a.625.625 0 0 1 1.082 0l8.66 15a.625.625 0 0 1-.54.937H3.34a.625.625 0 0 1-.542-.938l8.66-15z" stroke="#555" stroke-width=".75"/><path d="M12.486 12.774h-.978l-.076-6.123h1.136l-.082 6.123zm-1.095 1.863c0-.176.052-.322.158-.44.11-.12.27-.181.48-.181.211 0 .371.06.48.181a.62.62 0 0 1 .165.44.62.62 0 0 1-.164.44c-.11.113-.27.17-.48.17-.212 0-.372-.057-.481-.17a.632.632 0 0 1-.158-.44z" fill="#555"/></svg>