<svg width="35" height="35" fill="none" xmlns="http://www.w3.org/2000/svg"><path d="M17.5 35C27.165 35 35 27.165 35 17.5S27.165 0 17.5 0 0 7.835 0 17.5 7.835 35 17.5 35z" fill="#41B4E6"/><path d="M35 17.5c0-.426-.016-.849-.046-1.268L27.701 8.98 7.3 17.005l7.806 7.806.102.369.133-.134-.133.134 8.636 8.635C30.373 31.275 35 24.928 35 17.5z" fill="#0091C8"/><path d="M15.8 20.05l7.91 5.97L27.7 8.98 7.3 17.004l6.208 2.056 11.33-7.6-9.036 8.589z" fill="#fff"/><path d="M13.507 19.061l1.7 6.119.594-5.13 9.036-8.589-11.33 7.6z" fill="#D2D2D7"/><path d="M18.371 21.99l-3.163 3.19.593-5.13 2.57 1.94z" fill="#B9B9BE"/></svg>