<svg width="35" height="35" fill="none" xmlns="http://www.w3.org/2000/svg"><path d="M17.5 35C27.165 35 35 27.165 35 17.5S27.165 0 17.5 0 0 7.835 0 17.5 7.835 35 17.5 35z" fill="#56ACEE"/><path d="M28 11.266a8.9 8.9 0 0 1-2.474.65 4.18 4.18 0 0 0 1.894-2.281 8.924 8.924 0 0 1-2.737 1.001 4.386 4.386 0 0 0-3.145-1.303c-2.379 0-4.308 1.847-4.308 4.124 0 .323.038.638.112.94-3.58-.172-6.754-1.814-8.879-4.31a3.962 3.962 0 0 0-.583 2.073c0 1.432.762 2.694 1.916 3.433a4.455 4.455 0 0 1-1.95-.518v.052c0 1.998 1.485 3.665 3.454 4.045-.36.093-.741.144-1.135.144a4.31 4.31 0 0 1-.81-.076c.548 1.64 2.138 2.832 4.023 2.864a8.89 8.89 0 0 1-5.35 1.763c-.348 0-.69-.02-1.028-.056a12.572 12.572 0 0 0 6.603 1.856c7.925 0 12.257-6.286 12.257-11.736l-.015-.534A8.411 8.411 0 0 0 28 11.266z" fill="#fff"/></svg>