<svg width="18" height="10" fill="none" xmlns="http://www.w3.org/2000/svg"><path d="M1 5l-.383-.322a.5.5 0 0 0 0 .644L1 5zm16 0l.383.322a.5.5 0 0 0 0-.644L17 5zM1 5l.382.322.001-.001.006-.006a3.274 3.274 0 0 1 .132-.148c.095-.103.238-.252.425-.433.373-.36.919-.843 1.604-1.325C4.926 2.44 6.825 1.5 9 1.5v-1C6.54.5 4.439 1.56 2.974 2.591A14.573 14.573 0 0 0 1.25 4.016a11.856 11.856 0 0 0-.633.661L1 5zm0 0l-.382.322a.78.78 0 0 0 .046.053l.122.136A14.573 14.573 0 0 0 2.974 7.41C4.439 8.44 6.54 9.5 9 9.5v-1c-2.175 0-4.074-.94-5.45-1.909a13.572 13.572 0 0 1-1.604-1.325 10.867 10.867 0 0 1-.557-.58l-.006-.007v-.001L1 5zm8 4.5c2.46 0 4.56-1.06 6.026-2.091a14.57 14.57 0 0 0 1.723-1.425 11.884 11.884 0 0 0 .62-.647l.01-.01c0-.002.002-.003.002-.003l.001-.001L17 5l-.383-.322v.001l-.006.006a3.45 3.45 0 0 1-.132.148c-.095.103-.238.252-.425.433-.373.36-.919.843-1.603 1.325C13.073 7.56 11.175 8.5 9 8.5v1zM17 5l.382-.322v-.002c-.002 0-.002-.002-.004-.003l-.009-.01a5.362 5.362 0 0 0-.155-.174 11.884 11.884 0 0 0-.465-.473 14.57 14.57 0 0 0-1.723-1.425C13.561 1.56 11.46.5 9 .5v1c2.175 0 4.074.94 5.45 1.909.685.482 1.23.964 1.604 1.325a10.857 10.857 0 0 1 .557.58l.006.007a.011.011 0 0 1 0 .001L17 5z" fill="#fff"/><circle cx="9" cy="5" r="2.167" stroke="#fff"/></svg>