<svg width="35" height="35" fill="none" xmlns="http://www.w3.org/2000/svg"><path d="M17.5 35C27.165 35 35 27.165 35 17.5S27.165 0 17.5 0 0 7.835 0 17.5 7.835 35 17.5 35z" fill="#4E76A1"/><path fill-rule="evenodd" clip-rule="evenodd" d="M16.839 25.175h1.373s.415-.045.627-.273c.195-.21.189-.604.189-.604s-.027-1.843.829-2.114c.843-.267 1.925 1.781 3.073 2.569.868.596 1.527.465 1.527.465l3.07-.043s1.604-.098.843-1.36c-.062-.104-.443-.934-2.281-2.64-1.924-1.787-1.667-1.498.651-4.587 1.412-1.881 1.976-3.03 1.8-3.522-.168-.468-1.207-.345-1.207-.345l-3.455.022s-.256-.035-.446.079c-.185.11-.305.37-.305.37s-.547 1.456-1.276 2.694c-1.539 2.613-2.154 2.751-2.405 2.589-.585-.378-.44-1.52-.44-2.33 0-2.531.385-3.587-.747-3.86-.376-.091-.652-.151-1.613-.16-1.232-.014-2.276.003-2.867.293-.393.192-.696.621-.511.646.228.03.745.14 1.02.512.354.482.341 1.564.341 1.564s.204 2.98-.475 3.35c-.466.255-1.105-.264-2.476-2.634-.703-1.214-1.234-2.556-1.234-2.556s-.102-.251-.285-.385a1.432 1.432 0 0 0-.53-.214l-3.284.021s-.493.014-.674.228c-.16.19-.012.585-.012.585s2.57 6.014 5.48 9.044c2.67 2.779 5.7 2.596 5.7 2.596z" fill="#fff"/></svg>