<svg width="13" height="10" viewBox="0 0 13 10" fill="none" xmlns="http://www.w3.org/2000/svg">
<path d="M9.93458 8.24434L9.74581 8.16935L9.55823 8.24726C8.66539 8.61806 7.62081 8.83333 6.5 8.83333C4.79783 8.83333 3.27753 8.33725 2.19541 7.56034C1.11247 6.78284 0.5 5.75309 0.5 4.66667C0.5 3.58025 1.11247 2.55049 2.19541 1.773C3.27753 0.996087 4.79783 0.5 6.5 0.5C8.20217 0.5 9.72247 0.996087 10.8046 1.773C11.8875 2.55049 12.5 3.58025 12.5 4.66667C12.5 5.36556 12.2486 6.03464 11.7844 6.6315L11.6318 6.82778L11.6962 7.06795L12.2592 9.16773L9.93458 8.24434Z" stroke="#fff"/>
<path d="M4 4H5V5H4V4Z" fill="#fff"/>
<path d="M6 4H7V5H6V4Z" fill="#fff"/>
<path d="M8 4H9V5H8V4Z" fill="#fff"/>
</svg>
