<svg width="35" height="35" viewBox="0 0 35 35" fill="none" xmlns="http://www.w3.org/2000/svg">
<circle cx="18.2608" cy="16.7394" r="15.2174" fill="white"/>
<path d="M22.7158 9.31177H12.2842C10.6192 9.31177 9.26453 10.6664 9.26453 12.3314V22.763C9.26453 24.4281 10.6192 25.7831 12.2842 25.7831H22.7158C24.3808 25.7831 25.7359 24.4285 25.7359 22.763V12.3314C25.7359 10.6664 24.3812 9.31177 22.7158 9.31177ZM17.5 22.9697C14.5104 22.9697 12.0779 20.5373 12.0779 17.5472C12.0779 14.5576 14.5104 12.1252 17.5 12.1252C20.49 12.1252 22.9225 14.5576 22.9225 17.5472C22.9225 20.5369 20.4897 22.9697 17.5 22.9697ZM23.0968 13.2462C22.389 13.2462 21.8135 12.6707 21.8135 11.9633C21.8135 11.256 22.389 10.6804 23.0968 10.6804C23.8041 10.6804 24.3797 11.256 24.3797 11.9633C24.3797 12.6707 23.8041 13.2462 23.0968 13.2462Z" fill="url(#paint0_linear)"/>
<path d="M17.5 14.4165C15.7741 14.4165 14.3688 15.8211 14.3688 17.5469C14.3688 19.2736 15.7741 20.6785 17.5 20.6785C19.2266 20.6785 20.6308 19.2736 20.6308 17.5469C20.6308 15.8214 19.2262 14.4165 17.5 14.4165Z" fill="url(#paint1_linear)"/>
<path d="M17.5 0C7.8354 0 0 7.8354 0 17.5C0 27.1646 7.8354 35 17.5 35C27.1646 35 35 27.1646 35 17.5C35 7.8354 27.1646 0 17.5 0ZM28.0267 22.763C28.0267 25.6918 25.6446 28.0739 22.7158 28.0739H12.2842C9.35577 28.0739 6.97325 25.6918 6.97325 22.763V12.3314C6.97325 9.40295 9.35577 7.02043 12.2842 7.02043H22.7158C25.6446 7.02043 28.0267 9.40295 28.0267 12.3314V22.763Z" fill="url(#paint2_linear)"/>
<defs>
<linearGradient id="paint0_linear" x1="17.5002" y1="25.7352" x2="17.5002" y2="9.4397" gradientUnits="userSpaceOnUse">
<stop stop-color="#E09B3D"/>
<stop offset="0.3" stop-color="#C74C4D"/>
<stop offset="0.6" stop-color="#C21975"/>
<stop offset="1" stop-color="#7024C4"/>
</linearGradient>
<linearGradient id="paint1_linear" x1="17.4998" y1="20.6603" x2="17.4998" y2="14.4651" gradientUnits="userSpaceOnUse">
<stop stop-color="#E09B3D"/>
<stop offset="0.3" stop-color="#C74C4D"/>
<stop offset="0.6" stop-color="#C21975"/>
<stop offset="1" stop-color="#7024C4"/>
</linearGradient>
<linearGradient id="paint2_linear" x1="17.5" y1="34.8981" x2="17.5" y2="0.271851" gradientUnits="userSpaceOnUse">
<stop stop-color="#E09B3D"/>
<stop offset="0.3" stop-color="#C74C4D"/>
<stop offset="0.6" stop-color="#C21975"/>
<stop offset="1" stop-color="#7024C4"/>
</linearGradient>
</defs>
</svg>
