<svg width="15" height="16" viewBox="0 0 15 16" fill="none" xmlns="http://www.w3.org/2000/svg">
<path d="M13.8444 9.88603C13.6381 9.88603 13.4708 10.0533 13.4708 10.2596V13.5766C13.4701 14.1953 12.9688 14.6967 12.3501 14.6973H1.86789C1.24915 14.6967 0.747884 14.1953 0.747155 13.5766V3.84152C0.747884 3.22293 1.24915 2.72152 1.86789 2.72079H5.18484C5.39119 2.72079 5.55842 2.55355 5.55842 2.34721C5.55842 2.14101 5.39119 1.97363 5.18484 1.97363H1.86789C0.836755 1.9748 0.00116743 2.81039 0 3.84152V13.5767C0.00116743 14.6078 0.836755 15.4434 1.86789 15.4446H12.3501C13.3812 15.4434 14.2168 14.6078 14.218 13.5767V10.2596C14.218 10.0533 14.0507 9.88603 13.8444 9.88603Z" fill="black"/>
<path d="M14.07 1.01242C13.4135 0.355886 12.3491 0.355886 11.6925 1.01242L5.02767 7.67727C4.982 7.72295 4.94902 7.77957 4.9318 7.84173L4.05535 11.0059C4.01931 11.1356 4.05593 11.2746 4.15108 11.3698C4.24637 11.465 4.38529 11.5016 4.51502 11.4657L7.67919 10.5891C7.74136 10.5719 7.79798 10.5389 7.84366 10.4933L14.5084 3.82826C15.1639 3.17129 15.1639 2.10776 14.5084 1.45079L14.07 1.01242ZM5.84166 7.9201L11.2963 2.46528L13.0555 4.22445L7.60069 9.67927L5.84166 7.9201ZM5.49027 8.62522L6.8957 10.0308L4.95164 10.5694L5.49027 8.62522ZM13.9801 3.3L13.5839 3.69619L11.8246 1.93688L12.2209 1.54068C12.5856 1.17601 13.1769 1.17601 13.5416 1.54068L13.9801 1.97905C14.3442 2.34416 14.3442 2.93503 13.9801 3.3Z" fill="black"/>
</svg>
