<svg width="20" height="20" viewBox="0 0 20 20" fill="none" xmlns="http://www.w3.org/2000/svg">
<path d="M0.641498 5.52464C0.634228 5.56417 0.63013 5.60422 0.628808 5.64428V6.46704C0.629866 6.80611 0.840447 7.10922 1.1581 7.22833V8.43894C1.15956 8.84423 1.47827 9.17736 1.88304 9.19652V16.1904C1.47827 16.2097 1.15956 16.5428 1.1581 16.948V18.155C0.839786 18.2773 0.629337 18.5826 0.628808 18.9234V19.7282C0.628808 19.8783 0.750689 20 0.900726 20H19.2346C19.3847 20 19.5064 19.8783 19.5064 19.7282V18.9234C19.5059 18.5825 19.2954 18.2771 18.9772 18.155V16.9408C18.9758 16.5355 18.6569 16.2024 18.2523 16.1832V9.19652C18.6569 9.17736 18.9758 8.84423 18.9772 8.43894V7.22833C19.2948 7.10922 19.5053 6.80611 19.5064 6.46704V5.6497C19.5052 5.60964 19.501 5.56959 19.4937 5.53006C19.6304 5.59061 19.7902 5.52901 19.8508 5.39232C19.9113 5.25577 19.8497 5.09595 19.7132 5.03527L10.1927 0.0314285C10.1133 -0.0104762 10.0184 -0.0104762 9.93892 0.0314285L0.418624 5.02985C0.285771 5.10004 0.234878 5.26436 0.304807 5.39721C0.368788 5.51856 0.513141 5.57329 0.641498 5.52464ZM1.70181 7.69946V7.28081H4.83712V7.69589L1.70181 7.69946ZM8.68297 9.19837V16.1904C8.2782 16.2097 7.95948 16.5428 7.95803 16.948V18.1042H5.37712V16.948C5.37567 16.5428 5.05696 16.2097 4.65219 16.1904V9.19652C5.05696 9.17736 5.37567 8.84423 5.37712 8.43894V7.28081H7.95433V8.43722C7.95499 8.84318 8.27397 9.17709 8.6794 9.19652L8.68297 9.19837ZM8.50173 7.69946V7.28081H11.6372V7.69589L8.50173 7.69946ZM15.483 9.19837V16.1904C15.0783 16.2097 14.7594 16.5428 14.758 16.948V18.1042H12.1772V16.948C12.1757 16.5428 11.8569 16.2097 11.4522 16.1904V9.19652C11.8569 9.17736 12.1757 8.84423 12.1772 8.43894V7.28081H14.7544V8.43722C14.7549 8.84318 15.0739 9.17709 15.4793 9.19652L15.483 9.19837ZM15.3018 7.69946V7.28081H18.4371V7.69589L15.3018 7.69946ZM18.4371 17.6893V18.1042H15.2981V17.6893H18.4371ZM11.6372 17.6893V18.1042H8.49816V17.6893H11.6372ZM8.95118 8.65824H8.71562C8.59546 8.65824 8.49816 8.56095 8.49816 8.44079V8.24316H11.6335V8.44079C11.6335 8.56095 11.5362 8.65824 11.416 8.65824H8.95118ZM10.9104 9.20194V16.1868H9.2231V9.20194H10.9104ZM8.95118 16.7305H11.416C11.5362 16.7305 11.6335 16.8278 11.6335 16.948V17.1456H8.49816V16.948C8.49816 16.8278 8.59546 16.7305 8.71562 16.7305H8.95118ZM4.83355 17.6893V18.1042H1.6981V17.6893H4.83355ZM1.6981 8.44621V8.24316H4.83355V8.44079C4.83355 8.56095 4.73626 8.65824 4.61597 8.65824H1.91014C1.79143 8.65533 1.69705 8.55764 1.6981 8.43894V8.44621ZM4.10861 9.20736V16.1868H2.42304V9.20194L4.10861 9.20736ZM1.6981 16.9535C1.6981 16.8332 1.7954 16.7359 1.91556 16.7359H4.61597C4.73626 16.7359 4.83355 16.8332 4.83355 16.9535V17.151H1.6981V16.9535ZM18.9627 18.9344V19.4671H1.16894V18.9344C1.16894 18.7792 1.29466 18.6534 1.44985 18.6534H18.6818C18.8347 18.6534 18.9598 18.7759 18.9627 18.9289V18.9344ZM18.4335 16.9535V17.151H15.2981V16.9535C15.2981 16.8332 15.3954 16.7359 15.5155 16.7359H18.2215C18.3374 16.7388 18.4306 16.832 18.4335 16.948V16.9535ZM16.023 16.1922V9.20194H17.7103V16.1868L16.023 16.1922ZM18.4335 8.44621C18.4335 8.56637 18.3362 8.66366 18.2161 8.66366H15.5174C15.3972 8.66366 15.2999 8.56637 15.2999 8.44621V8.24316H18.4353L18.4335 8.44621ZM10.0658 0.575132L18.1616 4.83051H1.97002L10.0658 0.575132ZM1.16894 5.6497C1.16894 5.49966 1.29069 5.37791 1.44073 5.37791H18.6909C18.841 5.37791 18.9627 5.49966 18.9627 5.6497V6.47259C18.9627 6.62262 18.841 6.74437 18.6909 6.74437H1.44073C1.29069 6.74437 1.16894 6.62262 1.16894 6.47259V5.6497Z" fill="#555555"/>
</svg>
