<svg width="21" height="20" viewBox="0 0 21 20" fill="none" xmlns="http://www.w3.org/2000/svg">
<path d="M19.9462 19.4837L12.9462 8.81705C12.8847 8.72313 12.7798 8.66666 12.6675 8.66666H7.3342C7.22205 8.66666 7.11724 8.72313 7.05555 8.81705L0.0555459 19.4837C-0.0116742 19.5861 -0.0173708 19.7173 0.0408975 19.825C0.099003 19.9329 0.211796 20 0.334192 20H19.6675C19.7901 20 19.9027 19.9329 19.961 19.825C20.0193 19.7173 20.0136 19.5861 19.9462 19.4837ZM7.51421 9.33332H7.83664L2.60096 19.3333H0.951868L7.51421 9.33332ZM10.3342 19.3333V18H9.66753V19.3333H3.35486L8.58826 9.33332H9.66753V9.66666H10.3342V9.33332H11.4126L16.6459 19.3333H10.3342ZM17.4009 19.3333L12.1675 9.33332H12.49L19.0499 19.3333H17.4009Z" fill="#555555"/>
<path d="M9.6676 10H10.3343V10.6667H9.6676V10Z" fill="#555555"/>
<path d="M9.6676 11.3333H10.3343V12.3333H9.6676V11.3333Z" fill="#555555"/>
<path d="M9.6676 13H10.3343V14.3333H9.6676V13Z" fill="#555555"/>
<path d="M9.6676 15.3333H10.3343V17H9.6676V15.3333Z" fill="#555555"/>
<path d="M10.0009 8.00001C10.0998 8.00017 10.1936 7.95622 10.2569 7.88038C10.5376 7.54411 13.0009 4.54867 13.0009 3C13.0009 1.34326 11.6578 0 10.0009 0C8.34412 0 7.00085 1.34326 7.00085 3C7.00085 4.54867 9.46423 7.54411 9.74483 7.88038C9.80831 7.95622 9.90206 8.00017 10.0009 8.00001ZM10.0009 0.666667C11.2889 0.668458 12.3326 1.71208 12.3342 3C12.3342 3.99365 10.8303 6.09343 10.0009 7.13803C9.17127 6.09375 7.66752 3.99479 7.66752 3C7.66931 1.71208 8.71293 0.668458 10.0009 0.666667Z" fill="#555555"/>
<path d="M11.3342 2.66667C11.3342 1.93034 10.7373 1.33333 10.0008 1.33333C9.26449 1.33333 8.66748 1.93034 8.66748 2.66667C8.66748 3.40317 9.26449 4.00001 10.0008 4.00001C10.7373 4.00001 11.3342 3.40317 11.3342 2.66667ZM9.33415 2.66667C9.33415 2.2985 9.63266 2 10.0008 2C10.3692 2 10.6675 2.2985 10.6675 2.66667C10.6675 3.035 10.3692 3.33334 10.0008 3.33334C9.63266 3.33334 9.33415 3.035 9.33415 2.66667Z" fill="#555555"/>
</svg>
