<svg width="24" height="24" viewBox="0 0 24 24" fill="none" xmlns="http://www.w3.org/2000/svg">
<path d="M11.4587 1.6875C11.6993 1.27083 12.3007 1.27083 12.5413 1.6875L21.2015 16.6875C21.4421 17.1042 21.1414 17.625 20.6603 17.625H3.33975C2.85862 17.625 2.55792 17.1042 2.79848 16.6875L11.4587 1.6875Z" stroke="#555555" stroke-width="0.75"/>
<path d="M12.4864 12.7736H11.5079L11.4317 6.65057H12.5684L12.4864 12.7736ZM11.3907 14.6369C11.3907 14.4611 11.4434 14.3146 11.5489 14.1974C11.6583 14.0764 11.8184 14.0158 12.0294 14.0158C12.2403 14.0158 12.4005 14.0764 12.5098 14.1974C12.6192 14.3146 12.6739 14.4611 12.6739 14.6369C12.6739 14.8127 12.6192 14.9592 12.5098 15.0764C12.4005 15.1896 12.2403 15.2463 12.0294 15.2463C11.8184 15.2463 11.6583 15.1896 11.5489 15.0764C11.4434 14.9592 11.3907 14.8127 11.3907 14.6369Z" fill="#555555"/>
</svg>
