<svg width="20" height="20" viewBox="0 0 20 20" fill="none" xmlns="http://www.w3.org/2000/svg">
<path d="M19.667 5C19.6669 5 19.6668 5 19.6667 5H14.6667V0.333333C14.6668 0.149333 14.5177 0.000125079 14.3337 7.85479e-08C14.3336 7.85479e-08 14.3335 7.85479e-08 14.3333 7.85479e-08H5.66667C5.48267 -0.000124921 5.33346 0.148958 5.33333 0.332958C5.33333 0.333083 5.33333 0.333208 5.33333 0.333333V5H0.333333C0.149333 4.99988 0.000125079 5.14896 7.85479e-08 5.33296C7.85479e-08 5.33308 7.85479e-08 5.33321 7.85479e-08 5.33333V17.3333C-0.000124921 17.5173 0.148958 17.6665 0.332958 17.6667C0.333083 17.6667 0.333208 17.6667 0.333333 17.6667H1.03013C1.01079 17.7768 1.00071 17.8883 1 18V19.6667C0.999875 19.8507 1.14896 19.9999 1.33296 20C1.33308 20 1.33321 20 1.33333 20H18.6667C18.8507 20.0001 18.9999 19.851 19 19.667C19 19.6669 19 19.6668 19 19.6667V18C18.9993 17.8883 18.9893 17.7768 18.9699 17.6667H19.6667C19.8507 17.6668 19.9999 17.5177 20 17.3337C20 17.3336 20 17.3335 20 17.3333V5.33333C20.0001 5.14933 19.851 5.00012 19.667 5ZM14.3333 14.3333C14.3333 14.7015 14.0349 15 13.6667 15C13.2985 15 13 14.7015 13 14.3333C13 13.9651 13.2985 13.6667 13.6667 13.6667C14.0347 13.6671 14.3329 13.9653 14.3333 14.3333ZM6.33333 13.6667C6.70154 13.6667 7 13.9651 7 14.3333C7 14.7015 6.70154 15 6.33333 15C5.96513 15 5.66667 14.7015 5.66667 14.3333C5.66713 13.9653 5.96533 13.6671 6.33333 13.6667ZM4.33333 19.3333H1.66667V18C1.66667 17.2636 2.26363 16.6667 3 16.6667C3.73638 16.6667 4.33333 17.2636 4.33333 18V19.3333ZM2.33333 15.3333C2.33333 14.9651 2.63179 14.6667 3 14.6667C3.36821 14.6667 3.66667 14.9651 3.66667 15.3333C3.66667 15.7015 3.36821 16 3 16C2.632 15.9995 2.33379 15.7013 2.33333 15.3333ZM4.38383 16.5594C4.25812 16.4381 4.11717 16.3338 3.9645 16.249C4.47292 15.7163 4.45329 14.8723 3.92063 14.3639C3.38796 13.8554 2.54396 13.8751 2.0355 14.4078C1.54371 14.923 1.54371 15.7338 2.0355 16.249C1.71733 16.4255 1.453 16.6851 1.27058 17H0.666667V5.66667H5.33333V13.4607C4.87558 13.9743 4.89104 14.754 5.36883 15.249C4.86883 15.5255 4.51054 16.0022 4.38383 16.5594ZM7.66667 19.3333H5V17C5 16.2636 5.59696 15.6667 6.33333 15.6667C7.06971 15.6667 7.66667 16.2636 7.66667 17V19.3333ZM11.6667 19.3333H8.33333V17C8.33333 16.0795 9.07954 15.3333 10 15.3333C10.9205 15.3333 11.6667 16.0795 11.6667 17V19.3333ZM9 13.6667C9 13.1144 9.44771 12.6667 10 12.6667C10.5523 12.6667 11 13.1144 11 13.6667C11 14.219 10.5523 14.6667 10 14.6667C9.44796 14.6661 9.00058 14.2187 9 13.6667ZM12.0301 15.854C11.8069 15.4605 11.4748 15.1398 11.0737 14.9306C11.7778 14.3376 11.8678 13.2862 11.2748 12.5821C10.6818 11.8781 9.63033 11.7881 8.92629 12.381C8.22225 12.974 8.13225 14.0255 8.72521 14.7295C8.78638 14.8022 8.85363 14.8694 8.92629 14.9306C8.52521 15.1398 8.19312 15.4605 7.96992 15.854C7.79467 15.604 7.56483 15.3971 7.29783 15.249C7.80888 14.7262 7.79938 13.8881 7.27654 13.377C6.93992 13.048 6.45388 12.9225 6 13.0473V0.666667H14V13.0473C13.8914 13.0174 13.7793 13.0015 13.6667 13C12.9323 12.998 12.3353 13.5918 12.3333 14.3263C12.3324 14.67 12.4646 15.0007 12.7022 15.249C12.4352 15.3971 12.2053 15.604 12.0301 15.854ZM15 18V19.3333H12.3333V17C12.3333 16.2636 12.9303 15.6667 13.6667 15.6667C14.403 15.6667 15 16.2636 15 17V18ZM18.3333 19.3333H15.6667V18C15.6667 17.2636 16.2636 16.6667 17 16.6667C17.7364 16.6667 18.3333 17.2636 18.3333 18V19.3333ZM16.3333 15.3333C16.3333 14.9651 16.6318 14.6667 17 14.6667C17.3682 14.6667 17.6667 14.9651 17.6667 15.3333C17.6667 15.7015 17.3682 16 17 16C16.632 15.9995 16.3338 15.7013 16.3333 15.3333ZM19.3333 17H18.7294C18.547 16.6851 18.2827 16.4256 17.9645 16.249C18.4729 15.7163 18.4533 14.8723 17.9206 14.3639C17.388 13.8555 16.544 13.8751 16.0355 14.4078C15.5437 14.923 15.5437 15.7338 16.0355 16.249C15.8828 16.3338 15.7418 16.4381 15.6162 16.5593C15.4895 16.0022 15.1312 15.5255 14.6312 15.249C15.109 14.7539 15.1245 13.9742 14.6667 13.4606V5.66667H19.3334V17H19.3333Z" fill="#555555"/>
</svg>
