<svg width="20" height="20" viewBox="0 0 20 20" fill="none" xmlns="http://www.w3.org/2000/svg">
<path d="M19.6669 15.6667C19.851 15.6667 20.0002 15.5175 20.0002 15.3334C20.0002 15.1493 19.851 15.0001 19.6669 15.0001H19.3336C19.3336 14.816 19.1844 14.6668 19.0003 14.6668C18.8162 14.6668 18.667 14.816 18.667 15.0001H13.3336C13.3336 14.816 13.1843 14.6668 13.0003 14.6668C12.8162 14.6668 12.667 14.816 12.667 15.0001H12.3336C12.1495 15.0001 12.0003 15.1493 12.0003 15.3334C12.0003 15.5175 12.1495 15.6667 12.3336 15.6667H12.667V16.6667H12.3336C12.1495 16.6667 12.0003 16.8159 12.0003 17C12.0003 17.1841 12.1495 17.3334 12.3336 17.3334H12.667V17.6667H12.3336C12.1495 17.6667 12.0003 17.8159 12.0003 18C12.0003 18.1841 12.1495 18.3333 12.3336 18.3333H12.667V19.3333H7.00024V16.5755C7.49333 16.8534 8.04965 16.9996 8.61563 17C10.5086 16.9727 12.0225 15.4188 12.0002 13.5257C12.0105 12.2096 11.2756 11.0008 10.1023 10.4043C10.4885 9.87844 10.6955 9.24231 10.6926 8.58985C10.7042 7.14989 9.69411 5.90348 8.28294 5.61653C8.64001 4.8291 8.57864 3.91512 8.11946 3.18254C7.66032 2.44993 6.86454 1.99621 6.0002 1.9743C5.99032 1.9743 5.98079 1.97571 5.97094 1.97582C5.79348 0.828676 4.79946 -0.0133552 3.63876 0.000160409C2.47805 0.013676 1.50395 0.878676 1.35325 2.02965C0.509188 2.19145 -0.0735075 2.96856 0.00770342 3.82418C0.0889143 4.67981 0.80743 5.33336 1.66692 5.3334H3.60993C3.64001 5.42926 3.67567 5.52328 3.71673 5.61496C2.30563 5.90289 1.29602 7.14977 1.30786 8.58989C1.30501 9.24235 1.51196 9.87848 1.89817 10.4043C0.72493 11.0009 -0.010031 12.2096 0.000242484 13.5257C-0.0220231 15.4188 1.49188 16.9728 3.38485 17C3.95083 16.9996 4.50716 16.8534 5.00024 16.5755V19.3334H0.333602C0.1495 19.3334 0.000281544 19.4826 0.000281544 19.6667C0.000281544 19.8508 0.1495 20 0.333602 20H19.6669C19.851 20 20.0002 19.8508 20.0002 19.6667C20.0002 19.4826 19.851 19.3334 19.6669 19.3334H19.3336V18.3334H19.6669C19.851 18.3334 20.0002 18.1841 20.0002 18C20.0002 17.8159 19.851 17.6667 19.6669 17.6667H19.3336V17.3334H19.6669C19.851 17.3334 20.0002 17.1842 20.0002 17.0001C20.0002 16.816 19.851 16.6668 19.6669 16.6668H19.3336V15.6668H19.6669V15.6667ZM3.48739 4.55149C3.48739 4.5902 3.49177 4.62825 3.49348 4.66672H1.66692C1.11466 4.66672 0.666922 4.21903 0.666922 3.66672C0.666922 3.11442 1.11466 2.66672 1.66692 2.66672C1.75532 2.66676 1.84012 2.63164 1.90266 2.56911C1.96516 2.50661 2.00028 2.4218 2.00028 2.33336C1.99856 1.46344 2.66743 0.739145 3.53473 0.671723C4.40204 0.604262 5.17481 1.21649 5.30762 2.07621C4.22044 2.40828 3.48032 3.41477 3.48739 4.55149ZM6.3336 19.3334H5.66692V16.0855C5.78637 15.9743 5.89778 15.8547 6.00024 15.7276C6.1027 15.8547 6.21411 15.9743 6.33356 16.0855V19.3334H6.3336ZM6.37407 15.0976L8.56926 12.9024C8.69743 12.7719 8.69645 12.5625 8.56715 12.4332C8.43786 12.3038 8.22844 12.3029 8.09794 12.4311L6.3336 14.1954V10.8047L7.90259 9.23574C8.03133 9.10535 8.03071 8.89547 7.9011 8.76586C7.77153 8.63629 7.56165 8.63563 7.43122 8.76438L6.33356 9.86203V8.3334C6.33356 8.1493 6.1843 8.00008 6.00024 8.00008C5.81614 8.00008 5.66692 8.14934 5.66692 8.3334V9.86203L4.56926 8.76438C4.43887 8.63563 4.22899 8.63629 4.09938 8.76586C3.96977 8.89543 3.96915 9.10532 4.0979 9.23574L5.66688 10.8048V14.1954L3.90255 12.4311C3.77216 12.3023 3.56227 12.303 3.43266 12.4325C3.30309 12.5621 3.30243 12.772 3.43118 12.9024L5.62637 15.0976C5.13837 15.8644 4.29364 16.33 3.38477 16.3334C1.85985 16.3066 0.644188 15.0508 0.666844 13.5258C0.652703 12.3198 1.41497 11.2412 2.55649 10.852C2.66684 10.8156 2.75028 10.7244 2.77669 10.6112C2.80309 10.498 2.7686 10.3793 2.68575 10.2979C2.22755 9.84809 1.97098 9.23196 1.9745 8.58989C1.9527 7.31797 2.9586 6.26539 4.2302 6.22953C4.36782 6.24168 4.49934 6.17043 4.56434 6.04852C4.62118 5.93649 4.61005 5.802 4.53555 5.70086C4.28848 5.36852 4.15473 4.96559 4.15403 4.55145C4.13778 3.51465 4.96348 2.6602 6.0002 2.64098C7.03696 2.6602 7.86266 3.51465 7.84637 4.55145C7.84567 4.96559 7.71192 5.36852 7.46485 5.70086C7.39188 5.80285 7.38274 5.93727 7.44126 6.04821C7.50016 6.16075 7.6168 6.23114 7.74383 6.23082C9.02466 6.25387 10.0453 7.30899 10.0259 8.58989C10.0294 9.23196 9.77282 9.84809 9.31466 10.2979C9.23176 10.3793 9.19731 10.498 9.22372 10.6112C9.25012 10.7244 9.33356 10.8156 9.44391 10.852C10.7241 11.2996 11.5046 12.595 11.3019 13.936C11.0993 15.277 9.97098 16.284 8.61563 16.3334C7.70676 16.33 6.86208 15.8644 6.37407 15.0976ZM18.6669 19.3334H13.3336V18.3334H18.6669V19.3334ZM18.6669 17.6667H13.3336V17.3334H18.6669V17.6667ZM18.6669 16.6667H13.3336V15.6667H18.6669V16.6667Z" fill="#555555"/>
<path d="M14.3336 8.3334H18.3336C19.1931 8.33336 19.9116 7.6798 19.9929 6.82418C20.0741 5.96855 19.4914 5.19144 18.6473 5.02969C18.4947 3.86836 17.5049 3.00008 16.3336 3.00008C15.1623 3.00008 14.1725 3.86836 14.02 5.02969C13.1759 5.19144 12.5932 5.96855 12.6744 6.82418C12.7556 7.6798 13.4741 8.33336 14.3336 8.3334ZM14.3336 5.66672C14.422 5.66676 14.5068 5.63164 14.5694 5.5691C14.6319 5.5066 14.667 5.42179 14.667 5.33336C14.667 4.41289 15.4132 3.66668 16.3337 3.66668C17.2541 3.66668 18.0004 4.41285 18.0004 5.33336C18.0003 5.42176 18.0354 5.50656 18.098 5.5691C18.1605 5.6316 18.2453 5.66672 18.3337 5.66672C18.886 5.66672 19.3337 6.11445 19.3337 6.66672C19.3337 7.21898 18.886 7.66672 18.3337 7.66672H14.3337C13.7814 7.66672 13.3337 7.21902 13.3337 6.66672C13.3337 6.11441 13.7813 5.66672 14.3336 5.66672Z" fill="#555555"/>
</svg>
