<svg width="20" height="20" viewBox="0 0 20 20" fill="none" xmlns="http://www.w3.org/2000/svg">
<path d="M8.96448 11.3607H10.3468C10.5257 11.3607 10.6707 11.2156 10.6707 11.0367C10.6707 10.8578 10.5257 10.7127 10.3468 10.7127H8.96448C8.78556 10.7127 8.6405 10.8578 8.6405 11.0367C8.6405 11.2156 8.78556 11.3607 8.96448 11.3607Z" fill="#555555"/>
<path d="M17.9848 14.6663C17.9755 14.6616 17.966 14.6575 17.9563 14.6537L15.5021 13.7092C15.2455 13.6105 15.0484 13.4042 14.9614 13.1433L14.863 12.8482C15.4126 12.0592 15.6243 11.2848 15.1088 10.5114C14.8754 10.1613 14.5883 9.90916 14.2343 9.74307C14.3884 9.17097 14.4721 8.56048 14.4721 7.92657V7.90497H14.4937C14.8629 7.90497 15.1632 7.60462 15.1632 7.23542V6.54428C15.1632 6.29257 15.0235 6.07309 14.8176 5.95875V5.16199C14.8176 2.31564 12.502 0 9.65565 0C6.8093 0 4.49366 2.31564 4.49366 5.16199V5.95875C4.28783 6.07309 4.14809 6.29257 4.14809 6.54428V7.23542C4.14809 7.60462 4.44843 7.90497 4.81764 7.90497H4.83923V7.92657C4.83923 8.56048 4.92291 9.17097 5.07699 9.74311C4.72299 9.9092 4.43586 10.1614 4.20252 10.5114C3.68697 11.2848 3.89867 12.0592 4.44826 12.8483L4.3499 13.1434C4.26295 13.4043 4.06589 13.6105 3.80921 13.7093L1.355 14.6537C1.34528 14.6574 1.33578 14.6616 1.32649 14.6663C0.509039 15.075 0.0012207 15.8967 0.0012207 16.8106V18.9849C0.0012207 19.5446 0.456599 20 1.01634 20H9.65565H18.295C18.8547 20 19.3101 19.5446 19.3101 18.9849V16.8106C19.3101 15.8967 18.8023 15.075 17.9848 14.6663ZM14.5697 10.8708C14.7588 11.1545 14.9133 11.5784 14.4252 12.344C14.1717 12.7416 13.7912 13.1644 13.356 13.6066C13.1985 13.5616 13.0898 13.4192 13.0898 13.2539V12.0734C13.0898 12.0587 13.0885 12.0443 13.0866 12.0301C13.476 11.5494 13.7976 10.9876 14.0327 10.3676C14.2453 10.4825 14.4191 10.6449 14.5697 10.8708ZM5.63198 9.28726H5.7118C5.94005 9.28726 6.15457 9.37616 6.31681 9.53836C6.60057 9.82212 6.97789 9.9784 7.37919 9.9784H11.9321C12.3334 9.9784 12.7107 9.82212 12.9953 9.53749C13.1567 9.37611 13.3712 9.28726 13.5995 9.28726H13.6793C13.199 11.4996 11.5772 13.1317 9.65565 13.1317C7.73405 13.1317 6.11228 11.4996 5.63198 9.28726ZM6.58316 13.9611C6.76204 13.777 6.86947 13.5268 6.86947 13.2539V12.6985C7.65647 13.3791 8.61828 13.7797 9.65565 13.7797C10.693 13.7797 11.6548 13.3791 12.4418 12.6985V13.2539C12.4418 13.5267 12.5492 13.7769 12.7281 13.961C11.7857 14.5495 10.7285 14.8596 9.65565 14.8596C8.58282 14.8596 7.52554 14.5495 6.58316 13.9611ZM9.65565 15.5076C10.3951 15.5076 11.127 15.3751 11.8254 15.12C10.9409 16.0186 10.0989 16.9942 9.65565 18.087C9.21237 16.9942 8.37038 16.0186 7.48593 15.12C8.18433 15.3751 8.91617 15.5076 9.65565 15.5076ZM14.5153 7.23542C14.5153 7.24734 14.5056 7.25702 14.4937 7.25702H13.7809V6.52268H14.4937C14.5056 6.52268 14.5153 6.53235 14.5153 6.54428V7.23542ZM12.0531 7.25702V6.52268H13.133V7.25702H12.0531ZM9.97962 7.25702V6.52268H11.4051V7.25702H9.97962ZM7.90619 7.25702V6.52268H9.33167V7.25702H7.90619ZM6.17833 7.25702V6.52268H7.25824V7.25702H6.17833ZM12.4418 5.87473H11.0163V5.16199C11.0163 3.84756 10.9059 2.60855 10.7055 1.67309C10.6365 1.3511 10.5604 1.07771 10.4762 0.851015C10.8845 1.05797 11.2628 1.41905 11.5823 1.91616C12.1366 2.77836 12.4418 3.93106 12.4418 5.16199V5.87473ZM8.94291 5.87473V5.16199C8.94291 3.98946 9.03461 2.86562 9.20113 1.99749C9.36856 1.12467 9.56234 0.770842 9.65565 0.669892C9.74895 0.770842 9.94273 1.12467 10.1102 1.99749C10.2767 2.86562 10.3684 3.98946 10.3684 5.16199V5.87473H8.94291ZM8.83513 0.851058C8.75085 1.07775 8.67478 1.35114 8.6058 1.67313C8.40537 2.60855 8.29496 3.84756 8.29496 5.16199V5.87473H6.86947V5.16199C6.86947 3.93106 7.1747 2.77836 7.72895 1.9162C8.04852 1.41905 8.42675 1.05801 8.83513 0.851058ZM14.1697 5.16199V5.87473H13.0898V5.16199C13.0898 3.80834 12.748 2.53119 12.1274 1.56583C12.0559 1.4546 11.9815 1.34924 11.9047 1.2492C13.2573 2.02968 14.1697 3.49127 14.1697 5.16199ZM7.40666 1.24916C7.32982 1.34924 7.25543 1.4546 7.18394 1.56579C6.56329 2.53119 6.22152 3.80834 6.22152 5.16199V5.87473H5.14161V5.16199C5.14161 3.49127 6.05401 2.02968 7.40666 1.24916ZM4.79604 7.23542V6.54428C4.79604 6.53235 4.80571 6.52268 4.81764 6.52268H5.53038V7.25702H4.81764C4.80571 7.25702 4.79604 7.24734 4.79604 7.23542ZM7.60489 7.90497C7.60442 7.91214 7.60381 7.91927 7.60381 7.92657V8.27214C7.60381 8.45106 7.74887 8.59611 7.92779 8.59611C8.10671 8.59611 8.25176 8.45106 8.25176 8.27214V7.92657C8.25176 7.91927 8.25116 7.91214 8.25068 7.90497H11.0606C11.0601 7.91214 11.0595 7.91927 11.0595 7.92657V8.27214C11.0595 8.45106 11.2046 8.59611 11.3835 8.59611C11.5624 8.59611 11.7075 8.45106 11.7075 8.27214V7.92657C11.7075 7.91927 11.7069 7.91214 11.7064 7.90497H13.8241V7.92657C13.8241 8.16834 13.8106 8.40622 13.7848 8.63931H13.5995C13.1982 8.63931 12.8209 8.79559 12.5363 9.08022C12.3749 9.2416 12.1604 9.33045 11.9321 9.33045H7.37919C7.15094 9.33045 6.93643 9.24156 6.77418 9.07935C6.49042 8.79559 6.1131 8.63931 5.7118 8.63931H5.5264C5.50075 8.40622 5.48714 8.16834 5.48714 7.92657V7.90497H7.60489ZM4.74161 10.8708C4.89224 10.6449 5.06602 10.4825 5.27863 10.3676C5.5137 10.9876 5.83539 11.5494 6.22476 12.0301C6.22286 12.0443 6.22152 12.0587 6.22152 12.0734V13.2539C6.22152 13.4193 6.11284 13.5617 5.9553 13.6066C5.52018 13.1644 5.13958 12.7416 4.88615 12.3441C4.39802 11.5784 4.5525 11.1546 4.74161 10.8708ZM0.649169 18.9849V16.8106C0.649169 16.1487 1.01422 15.5531 1.60291 15.2526L4.04191 14.314C4.44524 14.1588 4.76196 13.8478 4.9255 13.4519C5.30757 13.8895 5.76165 14.3324 6.22364 14.783C7.59526 16.1208 9.13871 17.6267 9.31461 19.3521H4.10489V18.2938C4.10489 18.1149 3.95984 17.9698 3.78092 17.9698C3.602 17.9698 3.45694 18.1149 3.45694 18.2938V19.3521H1.01634C0.813877 19.3521 0.649169 19.1873 0.649169 18.9849ZM18.6621 18.9849C18.6621 19.1873 18.4974 19.3521 18.295 19.3521H15.8544V18.2937C15.8544 18.1148 15.7093 17.9698 15.5304 17.9698C15.3515 17.9698 15.2064 18.1148 15.2064 18.2937V19.3521H9.99669C10.1726 17.6266 11.716 16.1207 13.0877 14.783C13.5496 14.3324 14.0037 13.8894 14.3858 13.4518C14.5493 13.8477 14.8661 14.1588 15.2694 14.314L17.7084 15.2526C18.2971 15.5531 18.6621 16.1487 18.6621 16.8106V18.9849Z" fill="#555555"/>
</svg>
