<svg width="35" height="35" viewBox="0 0 35 35" fill="none" xmlns="http://www.w3.org/2000/svg">
<path d="M17.5 35C27.165 35 35 27.165 35 17.5C35 7.83502 27.165 0 17.5 0C7.83502 0 0 7.83502 0 17.5C0 27.165 7.83502 35 17.5 35Z" fill="#56ACEE"/>
<path d="M28 11.2657C27.2271 11.5937 26.3978 11.8161 25.5264 11.9154C26.4161 11.4052 27.0972 10.596 27.42 9.6348C26.5854 10.1072 25.6642 10.4503 24.6826 10.6363C23.8966 9.83335 22.7785 9.33325 21.5384 9.33325C19.1593 9.33325 17.2303 11.1803 17.2303 13.4571C17.2303 13.78 17.2683 14.0954 17.3418 14.397C13.762 14.2248 10.5877 12.5826 8.46314 10.0871C8.09176 10.6953 7.88049 11.4039 7.88049 12.1604C7.88049 13.5916 8.64161 14.8543 9.7964 15.5931C9.0904 15.5705 8.42639 15.3846 7.84508 15.0755V15.127C7.84508 17.1248 9.33056 18.7922 11.3002 19.1717C10.9394 19.2647 10.5588 19.3162 10.1651 19.3162C9.88696 19.3162 9.61794 19.2898 9.35417 19.2395C9.90267 20.8793 11.4931 22.0717 13.3776 22.1044C11.9039 23.2101 10.0457 23.8673 8.02749 23.8673C7.67976 23.8673 7.33724 23.8472 7 23.8107C8.90671 24.9831 11.1704 25.6666 13.6033 25.6666C21.528 25.6666 25.8597 19.3815 25.8597 13.9308L25.8453 13.3968C26.6917 12.8188 27.4239 12.0925 28 11.2657Z" fill="white"/>
</svg>
