<svg width="18" height="10" viewBox="0 0 18 10" fill="none" xmlns="http://www.w3.org/2000/svg">
<path d="M1 5L0.617365 4.67815C0.460878 4.86418 0.460878 5.13582 0.617365 5.32185L1 5ZM17 5L17.3826 5.32185C17.5391 5.13582 17.5391 4.86418 17.3826 4.67815L17 5ZM1 5C1.38264 5.32185 1.38254 5.32197 1.38246 5.32206C1.38245 5.32207 1.38238 5.32216 1.38236 5.32218C1.38232 5.32223 1.38233 5.32222 1.38239 5.32214C1.38251 5.322 1.38284 5.32162 1.38336 5.321C1.38441 5.31977 1.38626 5.31759 1.38892 5.31451C1.39422 5.30834 1.40271 5.29854 1.41432 5.28535C1.43754 5.25895 1.47323 5.219 1.52087 5.16743C1.6162 5.06426 1.75917 4.9148 1.94569 4.73446C2.3192 4.37333 2.86475 3.89091 3.54954 3.40886C4.92555 2.44023 6.82508 1.5 9 1.5V0.5C6.53953 0.5 4.43905 1.55977 2.97392 2.59114C2.23813 3.10909 1.65281 3.62667 1.2506 4.01554C1.04927 4.2102 0.893165 4.37324 0.78638 4.48882C0.732971 4.54662 0.691848 4.59261 0.66352 4.62481C0.649355 4.64091 0.638384 4.65357 0.630671 4.66254C0.626815 4.66703 0.623773 4.67059 0.621552 4.6732C0.620442 4.6745 0.619537 4.67557 0.618839 4.6764C0.61849 4.67681 0.618193 4.67716 0.617947 4.67745C0.617824 4.6776 0.617678 4.67777 0.617617 4.67785C0.617484 4.678 0.617365 4.67815 1 5ZM1 5C0.617365 5.32185 0.617484 5.322 0.617617 5.32215C0.617678 5.32223 0.617824 5.3224 0.617947 5.32255C0.618193 5.32284 0.61849 5.32319 0.618839 5.3236C0.619537 5.32443 0.620442 5.3255 0.621552 5.3268C0.623773 5.32941 0.626815 5.33297 0.630671 5.33746C0.638384 5.34643 0.649355 5.35909 0.66352 5.37519C0.691848 5.40739 0.732971 5.45338 0.78638 5.51118C0.893165 5.62676 1.04927 5.7898 1.2506 5.98446C1.65281 6.37333 2.23813 6.89091 2.97392 7.40886C4.43905 8.44023 6.53953 9.5 9 9.5V8.5C6.82508 8.5 4.92555 7.55977 3.54954 6.59114C2.86475 6.10909 2.3192 5.62667 1.94569 5.26554C1.75917 5.0852 1.6162 4.93574 1.52087 4.83257C1.47323 4.781 1.43754 4.74105 1.41432 4.71465C1.40271 4.70146 1.39422 4.69166 1.38892 4.68549C1.38626 4.68241 1.38441 4.68023 1.38336 4.679C1.38284 4.67838 1.38251 4.678 1.38239 4.67786C1.38233 4.67778 1.38232 4.67777 1.38236 4.67782C1.38238 4.67784 1.38245 4.67793 1.38246 4.67794C1.38254 4.67803 1.38264 4.67815 1 5ZM9 9.5C11.4605 9.5 13.5609 8.44023 15.0261 7.40886C15.7619 6.89091 16.3472 6.37333 16.7494 5.98446C16.9507 5.7898 17.1068 5.62676 17.2136 5.51118C17.267 5.45338 17.3082 5.40739 17.3365 5.37519C17.3506 5.35909 17.3616 5.34643 17.3693 5.33746C17.3732 5.33297 17.3762 5.32941 17.3784 5.3268C17.3796 5.3255 17.3805 5.32443 17.3812 5.3236C17.3815 5.32319 17.3818 5.32284 17.3821 5.32255C17.3822 5.3224 17.3823 5.32223 17.3824 5.32215C17.3825 5.322 17.3826 5.32185 17 5C16.6174 4.67815 16.6175 4.67803 16.6175 4.67794C16.6175 4.67793 16.6176 4.67784 16.6176 4.67782C16.6177 4.67777 16.6177 4.67778 16.6176 4.67786C16.6175 4.678 16.6172 4.67838 16.6166 4.679C16.6156 4.68023 16.6137 4.68241 16.6111 4.68549C16.6058 4.69166 16.5973 4.70146 16.5857 4.71465C16.5625 4.74105 16.5268 4.781 16.4791 4.83257C16.3838 4.93574 16.2408 5.0852 16.0543 5.26554C15.6808 5.62667 15.1352 6.10909 14.4505 6.59114C13.0744 7.55977 11.1749 8.5 9 8.5V9.5ZM17 5C17.3826 4.67815 17.3825 4.678 17.3824 4.67785C17.3823 4.67777 17.3822 4.6776 17.3821 4.67745C17.3818 4.67716 17.3815 4.67681 17.3812 4.6764C17.3805 4.67557 17.3796 4.6745 17.3784 4.6732C17.3762 4.67059 17.3732 4.66703 17.3693 4.66254C17.3616 4.65357 17.3506 4.64091 17.3365 4.62481C17.3082 4.59261 17.267 4.54662 17.2136 4.48882C17.1068 4.37324 16.9507 4.2102 16.7494 4.01554C16.3472 3.62667 15.7619 3.10909 15.0261 2.59114C13.5609 1.55977 11.4605 0.5 9 0.5V1.5C11.1749 1.5 13.0744 2.44023 14.4505 3.40886C15.1352 3.89091 15.6808 4.37333 16.0543 4.73446C16.2408 4.9148 16.3838 5.06426 16.4791 5.16743C16.5268 5.219 16.5625 5.25895 16.5857 5.28535C16.5973 5.29854 16.6058 5.30834 16.6111 5.31451C16.6137 5.31759 16.6156 5.31977 16.6166 5.321C16.6172 5.32162 16.6175 5.322 16.6176 5.32214C16.6177 5.32222 16.6177 5.32223 16.6176 5.32218C16.6176 5.32216 16.6175 5.32207 16.6175 5.32206C16.6175 5.32197 16.6174 5.32185 17 5Z" fill="#fff"/>
<circle cx="8.99998" cy="4.99998" r="2.16667" stroke="#fff"/>
</svg>
