<svg width="35" height="35" viewBox="0 0 35 35" fill="none" xmlns="http://www.w3.org/2000/svg">
<path d="M17.5 35C27.165 35 35 27.165 35 17.5C35 7.83502 27.165 0 17.5 0C7.83502 0 0 7.83502 0 17.5C0 27.165 7.83502 35 17.5 35Z" fill="#4E76A1"/>
<path fill-rule="evenodd" clip-rule="evenodd" d="M16.839 25.1755H18.2125C18.2125 25.1755 18.6274 25.13 18.8392 24.9016C19.0342 24.692 19.028 24.2983 19.028 24.2983C19.028 24.2983 19.0011 22.4553 19.8565 22.1839C20.6997 21.9166 21.7825 23.9652 22.9302 24.7528C23.798 25.349 24.4575 25.2183 24.4575 25.2183L27.5262 25.1755C27.5262 25.1755 29.1315 25.0767 28.3704 23.8145C28.308 23.7112 27.9271 22.8808 26.0887 21.1744C24.1646 19.3885 24.4223 19.6773 26.7401 16.5881C28.1517 14.7067 28.716 13.5581 28.5397 13.0661C28.3716 12.5976 27.3334 12.7214 27.3334 12.7214L23.8782 12.7429C23.8782 12.7429 23.6221 12.708 23.4321 12.8215C23.2465 12.9329 23.127 13.1924 23.127 13.1924C23.127 13.1924 22.5802 14.6483 21.8508 15.8865C20.3123 18.4991 19.6971 18.637 19.4457 18.4748C18.8607 18.0967 19.0067 16.9559 19.0067 16.1454C19.0067 13.6136 19.3908 12.5579 18.259 12.2847C17.8834 12.1939 17.607 12.134 16.6465 12.1243C15.4137 12.1115 14.3702 12.1281 13.7793 12.4176C13.3863 12.61 13.083 13.039 13.2677 13.0636C13.4961 13.0942 14.0133 13.2031 14.2875 13.5765C14.6416 14.0581 14.6291 15.14 14.6291 15.14C14.6291 15.14 14.8325 18.1204 14.154 18.4907C13.6882 18.7446 13.0494 18.2261 11.6777 15.8559C10.9749 14.6418 10.4442 13.2998 10.4442 13.2998C10.4442 13.2998 10.3419 13.0489 10.1594 12.9148C9.93792 12.7523 9.62847 12.7005 9.62847 12.7005L6.34515 12.722C6.34515 12.722 5.85226 12.7357 5.67133 12.9501C5.51036 13.1407 5.65854 13.535 5.65854 13.535C5.65854 13.535 8.22904 19.5488 11.1396 22.5795C13.8083 25.358 16.839 25.1755 16.839 25.1755Z" fill="white"/>
</svg>
